<svg width="24" height="24" xmlns="http://www.w3.org/2000/svg">

 <g>
  <title>Layer 1</title>
  <g id="svg_1" width="24" fill="rgb(239 68 68)" height="24">
   <path id="svg_2" d="m17.76997,10.32c-0.77,-0.32 -1.2,-0.5 -1.2,-0.5l1.43,-0.76c1.84,-0.96 2.53,-3.23 1.56,-5.06s-3.24,-2.53 -5.07,-1.56l-8.49,4.5c-1.29,0.68 -2.07,2.04 -2,3.49c0.07,1.42 0.93,2.67 2.22,3.25c0.03,0.01 1.2,0.5 1.2,0.5l-1.42,0.75c-1.83,0.97 -2.53,3.24 -1.56,5.07c0.97,1.83 3.24,2.53 5.07,1.56l8.5,-4.5c1.29,-0.68 2.06,-2.04 1.99,-3.49c-0.07,-1.42 -0.94,-2.68 -2.23,-3.25zm-7.77,4.33l0,-5.3l5,2.65l-5,2.65z"/>
  </g>
 </g>
</svg>